HIERARCHY
ROOT Root
{
	OFFSET 0.00000 0.00000 0.00000
	CHANNELS 6 Xposition Yposition Zposition Zrotation Xrotation Yrotation
	JOINT Hips
	{
		OFFSET 0 0 0	
		CHANNELS 3 Zrotation Xrotation Yrotation
		JOINT Spine
		{
			OFFSET 0 4 0	
			CHANNELS 3 Zrotation Xrotation Yrotation
			JOINT Spine1
			{
				OFFSET 0 19.4 0	
				CHANNELS 3 Zrotation Xrotation Yrotation
				JOINT Spine2
				{
					OFFSET 0 16.6 0	
					CHANNELS 3 Zrotation Xrotation Yrotation
					JOINT LeftCollar
					{
						OFFSET 0 10 0	
						CHANNELS 3 Zrotation Xrotation Yrotation
						JOINT LeftArm
						{
							OFFSET 15.6 -2 3	
							CHANNELS 3 Zrotation Xrotation Yrotation
							JOINT LeftForeArm
							{
								OFFSET 3.5 -27 -1	
								CHANNELS 3 Zrotation Xrotation Yrotation
								JOINT LeftHand
								{
									OFFSET 1 -27 1	
									CHANNELS 3 Zrotation Xrotation Yrotation
									End Site
									{
										OFFSET 0 -15 0
									}
								}
							}
						}
					}
					JOINT RightCollar
					{
						OFFSET 0 10 0	
						CHANNELS 3 Zrotation Xrotation Yrotation
						JOINT RightArm
						{
							OFFSET -15.6 -2 3	
							CHANNELS 3 Zrotation Xrotation Yrotation
							JOINT RightForeArm
							{
								OFFSET -3.5 -27 -1	
								CHANNELS 3 Zrotation Xrotation Yrotation
								JOINT RightHand
								{
									OFFSET -1 -27 1	
									CHANNELS 3 Zrotation Xrotation Yrotation
									End Site
									{
										OFFSET 0 -15 0
									}
								}
							}
						}
					}
					JOINT Neck
					{
						OFFSET 0 10 0	
						CHANNELS 3 Zrotation Xrotation Yrotation
						JOINT Head
						{
							OFFSET 0 12.7 3	
							CHANNELS 3 Zrotation Xrotation Yrotation
							End Site
							{
								OFFSET 0 12.7 3
							}
						}
					}
				}
			}
		}
	}
	JOINT LeftHip
	{
		OFFSET 0 0 0	
		CHANNELS 3 Zrotation Xrotation Yrotation
		JOINT LeftUpLeg
		{
			OFFSET 8.8 -6 0	
			CHANNELS 3 Zrotation Xrotation Yrotation
			JOINT LeftLeg
			{
				OFFSET 0 -39 2	
				CHANNELS 3 Zrotation Xrotation Yrotation
				JOINT LeftFoot
				{
					OFFSET 0 -43 -2	
					CHANNELS 3 Zrotation Xrotation Yrotation
					JOINT LeftFootFront
					{
						OFFSET 0 -7 8.5	
						CHANNELS 3 Zrotation Xrotation Yrotation
						End Site
						{
							OFFSET 0 -0.5 9
						}
					}
				}
				JOINT LeftHeel
				{
					OFFSET 0 -43 -2	
					CHANNELS 3 Zrotation Xrotation Yrotation
					End Site
					{
						OFFSET 0 -7.5 -5
					}
				}
			}
		}
	}
	JOINT RightHip
	{
		OFFSET 0 0 0	
		CHANNELS 3 Zrotation Xrotation Yrotation
		JOINT RightUpLeg
		{
			OFFSET -8.8 -6 0	
			CHANNELS 3 Zrotation Xrotation Yrotation
			JOINT RightLeg
			{
				OFFSET 0 -39 2	
				CHANNELS 3 Zrotation Xrotation Yrotation
				JOINT RightFoot
				{
					OFFSET 0 -43 -2	
					CHANNELS 3 Zrotation Xrotation Yrotation
					JOINT RightFootFront
					{
						OFFSET 0 -7 8.5	
						CHANNELS 3 Zrotation Xrotation Yrotation
						End Site
						{
							OFFSET 0 -0.5 9
						}
					}
				}
				JOINT RightHeel
				{
					OFFSET 0 -43 -2	
					CHANNELS 3 Zrotation Xrotation Yrotation
					End Site
					{
						OFFSET 0 -7.5 -5
					}
				}
			}
		}
	}
}
MOTION
Frames: 9
Frame Time: 0.05
0 95.731 0 -0 0 -0 -3.8024 -6.4374 8.4918 -1.3054 -4.128 -2.3696 -1.3054 -4.128 -2.3696 -1.0847 -3.4712 -1.9836 -0 0 -0 -0.41039 11.816 10.995 6.8391 6.3548 2.6155 -0.026172 2.3495 -18.785 -0 0 -0 11.257 3.7505 -14.035 -10.084 10.346 -4.5091 8.0947 -0.65775 7.9927 2.3851 9.543 -4.6105 1.6098 5.9874 -6.4543 -3.8024 -6.4374 8.4918 6.71 18.233 12.55 -4.1991 -12.673 -13.679 -0 0 -0 0 0 -3.1933e-07 -0 0 -0 -3.8024 -6.4374 8.4918 16.931 18.996 4.0738 -12.901 -6.7555 17.727 -0 0 -0 -0 0 4.0187e-07 -0 0 -0 
0 95.733 0 -0 0 -0 -3.8262 -6.5242 8.456 -1.3089 -4.282 -2.3517 -1.3089 -4.282 -2.3517 -1.0873 -3.6005 -1.9682 -0 0 -0 -0.21626 12.049 11.486 6.5723 6.1887 2.3532 0.1592 2.4631 -19.004 -0 0 -0 11.126 3.9349 -14.407 -10.1 10.241 -4.1709 8.178 -0.43353 8.0844 2.3147 11.998 -5.0788 1.6133 8.3153 -6.9154 -3.8262 -6.5242 8.456 6.7338 18.356 12.547 -4.2054 -12.666 -13.654 -0 0 -0 -0 0 3.4643e-07 -0 0 -0 -3.8262 -6.5242 8.456 16.951 19.134 4.0752 -12.888 -6.7729 17.785 -0 0 -0 5.3361e-08 7.9436e-16 1.7059e-06 -0 0 -0 
0 95.736 0 -0 0 -0 -3.8549 -6.6759 8.4543 -1.2894 -4.3681 -2.3355 -1.2894 -4.3681 -2.3355 -1.0708 -3.6728 -1.9545 -0 0 -0 -0.054763 12.133 11.974 6.2795 6.0134 2.0783 0.32118 2.5199 -19.225 -0 0 -0 10.939 3.9902 -14.774 -10.098 10.123 -3.8526 8.2907 -0.56773 7.9231 2.2481 14.552 -5.5777 1.6435 10.798 -7.4152 -3.8549 -6.6759 8.4543 6.7528 18.482 12.542 -4.1766 -12.605 -13.658 -0 0 -0 -0 0 1.9135e-07 -0 0 -0 -3.8549 -6.6759 8.4543 16.988 19.228 4.0237 -12.852 -6.7029 17.866 -0 0 -0 -5.3361e-08 1.2036e-16 -2.5847e-07 -0 0 -0 
0 95.739 0 -0 0 -0 -3.8866 -6.7916 8.4769 -1.2771 -4.3803 -2.3125 -1.2771 -4.3803 -2.3125 -1.0605 -3.683 -1.9353 -0 0 -0 0.14563 11.974 12.379 5.9906 5.8616 1.7442 0.51545 2.5916 -19.316 -0 0 -0 10.823 3.9604 -14.859 -9.8439 9.7018 -4.2379 8.2285 -0.51582 8.1304 2.2082 16.69 -6.0675 1.679 12.927 -7.9019 -3.8866 -6.7916 8.4769 6.7806 18.537 12.568 -4.1622 -12.51 -13.73 -0 0 -0 0 0 -3.8812e-07 -0 0 -0 -3.8866 -6.7916 8.4769 17.009 19.257 3.92 -12.809 -6.666 17.935 -0 0 -0 2.668e-08 -3.1526e-16 -1.354e-06 -0 0 -0 
0 95.744 0 -0 0 -0 -3.9176 -6.8507 8.4446 -1.2502 -4.3549 -2.2736 -1.2502 -4.3549 -2.2736 -1.0382 -3.6615 -1.9028 -0 0 -0 0.20224 11.8 12.196 5.8316 5.7268 1.9385 0.61474 2.5571 -19.295 -0 0 -0 10.767 4.0102 -14.919 -9.6479 9.155 -4.5907 8.2137 -0.7219 8.1 2.1973 18.244 -6.4393 1.7319 14.504 -8.2544 -3.9176 -6.8507 8.4446 6.7784 18.585 12.636 -4.1549 -12.486 -13.78 -0 0 -0 -0 0 2.0761e-07 -0 0 -0 -3.9176 -6.8507 8.4446 17.003 19.291 3.9285 -12.829 -6.7114 17.927 -0 0 -0 -5.3361e-08 5.9014e-16 -1.2673e-06 -0 0 -0 
0 95.749 0 -0 0 -0 -3.9411 -6.8486 8.4259 -1.2242 -4.3025 -2.258 -1.2242 -4.3025 -2.258 -1.0166 -3.6174 -1.8899 -0 0 -0 0.21627 11.601 12.15 5.8554 5.6603 1.9929 0.64136 2.6291 -19.331 -0 0 -0 10.762 4.1425 -14.898 -9.5375 8.7325 -4.7306 8.2074 -0.89762 8.1139 2.2593 19.342 -6.6375 1.8465 15.644 -8.4467 -3.9411 -6.8486 8.4259 6.7666 18.595 12.644 -4.1428 -12.532 -13.762 -0 0 -0 0 0 -2.4054e-07 -0 0 -0 -3.9411 -6.8486 8.4259 16.991 19.292 3.9418 -12.868 -6.7877 17.902 -0 0 -0 2.668e-08 2.7721e-16 1.1906e-06 -0 0 -0 
0 95.755 0 -0 0 -0 -3.9571 -6.8279 8.4065 -1.1901 -4.2751 -2.2561 -1.1901 -4.2751 -2.2561 -0.98807 -3.5943 -1.8886 -0 0 -0 0.20671 11.554 12.242 5.9349 5.6399 1.9351 0.63857 2.6967 -19.354 -0 0 -0 10.697 4.3409 -14.99 -9.4577 8.5288 -4.6797 8.2399 -0.95197 8.1947 2.3191 20.093 -6.6948 1.9582 16.416 -8.5066 -3.9571 -6.8279 8.4065 6.7682 18.58 12.653 -4.1553 -12.583 -13.738 -0 0 -0 0 0 -4.0771e-07 -0 0 -0 -3.9571 -6.8279 8.4065 16.958 19.279 3.9153 -12.889 -6.8668 17.936 -0 0 -0 -2.668e-08 2.2732e-16 -9.7634e-07 -0 0 -0 
0 95.761 0 -0 0 -0 -3.9722 -6.8384 8.4003 -1.1647 -4.2198 -2.2615 -1.1647 -4.2198 -2.2615 -0.96681 -3.5478 -1.8933 -0 0 -0 0.22644 11.551 12.338 6.0057 5.617 1.8693 0.60315 2.7477 -19.385 -0 0 -0 10.655 4.4778 -15.189 -9.4372 8.4781 -4.4342 8.2741 -1.0738 8.1217 2.3834 20.475 -6.6378 2.0574 16.842 -8.4564 -3.9722 -6.8384 8.4003 6.7722 18.612 12.642 -4.1681 -12.649 -13.706 -0 0 -0 -0 0 1.2256e-07 -0 0 -0 -3.9722 -6.8384 8.4003 16.928 19.299 3.8978 -12.908 -6.9293 17.964 -0 0 -0 2.668e-08 2.7546e-16 1.1831e-06 -0 0 -0 
0 95.766 0 -0 0 -0 -3.9592 -6.9377 8.4783 -1.1533 -4.116 -2.3186 -1.1533 -4.116 -2.3186 -0.95728 -3.4606 -1.9414 -0 0 -0 0.24125 11.549 12.5 6.0487 5.5775 1.7895 0.56863 2.7991 -19.38 -0 0 -0 10.634 4.5425 -15.443 -9.3879 8.4663 -4.2276 8.2536 -1.1798 8.2016 2.3851 20.676 -6.4197 2.0943 17.127 -8.2951 -3.9592 -6.9377 8.4783 6.7658 18.703 12.563 -4.1575 -12.68 -13.691 -0 0 -0 -0 0 3.3351e-09 -0 0 -0 -3.9592 -6.9377 8.4783 16.914 19.381 3.7928 -12.886 -6.9371 18.004 -0 0 -0 -0 0 7.6623e-07 -0 0 -0 
